<svg id="Layer_1" data-name="Layer 1" xmlns="http://www.w3.org/2000/svg" viewBox="0 0 1921.77 1081.02"><defs><style>.cls-1{fill:#007b99;}</style></defs><title>background-box</title><path class="cls-1" d="M1643,757c-23.94,6-47,15.54-70.9,21.6-25.16,6.39-49.86,14.6-75,21.17-25.72,6.71-51.63,12.67-77.56,18.49q-18.65,4.18-37.31,8.34c-11.71,2.63-24.47,5.58-36.45,6.51-24.68,1.93-49.53,8.76-74.23,11.93q-41,5.28-82.18,8.6-82.36,6.68-165.11,5.58c-109.08-1.43-218.31-12.17-326.3-26.94C588.9,817.37,479.47,802,369.68,794c-123-8.9-246.37-12.32-369.68-13.55v8.39c0,6-1.61,6.76,5,6.8q24.87.15,49.76.41,50.58.51,101.16,1.61c67.38,1.52,134.75,4.05,202,8.37s134.45,10.43,201.31,19.07c66.19,8.56,132.36,17.65,198.71,25.26,67.09,7.7,134.4,13.56,201.84,17.09,66.88,3.49,133.78,1.62,200.62-1.8,129.87-6.63,258.58-31.42,383.4-67.08,31-8.85,62.08-16.69,92.85-26.24,31.31-9.72,62.52-19.77,93.81-29.54s62.57-19.25,94.15-27.87q23.27-6.34,46.7-12,11.73-2.81,23.5-5.38,5.49-1.2,11-2.35c1.9-.39,13-1.31,14.19-2.85,1.91-2.5,0-13.17,0-16.52-23.75,4.73-47,9.77-70.26,16.59q-34.6,10.17-69.18,20.45C1734.43,726.7,1688.45,741.06,1643,757Z" transform="translate(0.83 0.4)"/><path class="cls-1" d="M1871,644c-59.9,18.48-119.45,38.07-178.77,58.35-57.89,19.79-115.39,40.87-174,58.28-116.68,34.64-236.1,59-357.56,68.33-29.46,2.26-59,3.87-88.48,5.21-31.13,1.41-62.33-.43-93.44-1.94-62.16-3-124.21-8.1-186-15.71C669,801.28,546,781.11,422.1,767.22c-124.73-14-250-20.3-375.47-23.84Q23.32,742.72,0,742.2v8.16c0,6.68-1,6.56,6.33,6.69q24.77.45,49.54,1,51.59,1.19,103.15,3c66.71,2.39,133.5,5.82,200,11.75C492.33,784.69,624.43,805.31,757.17,822c68.27,8.58,136.7,15.26,205.4,19.22,33.7,1.94,67.43,3.8,101.18,2.81q52-1.53,103.86-5.44c130.17-9.95,257.84-36.88,382.51-75.17,61.19-18.79,121.73-39.5,182.4-59.89q45.74-15.39,91.83-29.68c15.19-4.68,30.39-9.57,45.77-13.57,7.34-1.91,14.71-3.69,22.08-5.46,4.15-1,8.29-2,12.45-2.92,3.41-.78,11.06-1,13.82-3.1,3.2-2.37,1.53-11.64,1.53-16.25C1903.64,636,1887.55,641.64,1871,644Z" transform="translate(0.83 0.4)"/><path class="cls-1" d="M1706.28,717.22c-99.52,33.56-199.47,66.58-302.13,89.29-112.48,24.88-226.24,37.55-341.34,40.71-57.19,1.57-114.7-3-171.69-7.69-58-4.78-115.8-11.67-173.53-19.18C606,805.84,494.83,789.39,382.76,779c-113.39-10.48-227.3-14.29-341.12-16.55q-20.82-.42-41.64-.74v8.86c0,.85-.5,4.22,0,5,.83,1.28,7.63.67,9.57.7q25,.32,50,.73,51.53.88,103.05,2.3c66,1.9,132,4.92,197.82,10.09,131.4,10.3,261.86,29.12,392.46,46.5,67.72,9,136.16,14.28,204.33,18.47,69.64,4.27,139,2.65,208.63-2.21,130.13-9.08,258.26-34.82,383.32-71.44,60.9-17.83,121.16-37.64,181.55-57.14,31.26-10.09,62.61-20,94.09-29.35,15.63-4.67,31.25-9.46,47.09-13.35q11.4-2.79,22.85-5.41,5.23-1.2,10.49-2.36c3.19-.7,10.77-1,13.3-2.85,3.17-2.3,1.47-12,1.47-16.53C1847.32,669.4,1776.63,693.41,1706.28,717.22Z" transform="translate(0.83 0.4)"/><path class="cls-1" d="M1646.52,810.12c-101.35,27.27-203.58,52.27-307.39,68.19a1912.24,1912.24,0,0,1-332,21.19c-109.09-2.39-217.73-13.83-326-26.21-105.3-12-210.76-22.81-316.65-28-107.78-5.26-215.77-5.1-323.65-5.26Q20.38,840,0,840v15c131.72-.11,263.59-1,395.19,5.5,65.85,3.27,131.6,8.38,197.22,14.75,65.44,6.35,130.65,14.81,196.13,20.78,130.12,11.86,261,18.9,391.6,10.15q96.66-6.48,192.48-21.41c62.58-9.73,124.46-23.34,186-38.5,61.92-15.27,123.52-31.8,185.4-47.19,31.07-7.72,62.16-15.27,93.62-21.24q23.27-4.41,46.72-7.86,10.83-1.59,21.7-3c4.18-.52,12.31.06,14-3.07,2-3.74,0-13.43,0-17.81C1827.25,758.54,1736.49,785.13,1646.52,810.12Z" transform="translate(0.83 0.4)"/><path class="cls-1" d="M1713,528.54c-53.73,12-107.26,25.36-159.61,42.49-51.81,17-101.09,38.82-150.65,61.32s-99.62,42.72-151.9,57.78c-26.83,7.73-54,15.39-81.68,19.25q-40.51,5.67-81.33,8.67c-116,8.51-232.16-.89-346.94-18.11s-228.67-39.67-343.17-58.55C280.19,622,162.16,606.75,43.47,596.91Q21.74,595.11,0,593.5v8.55c0,.86-.49,4,0,4.82.8,1.31,7.62,1.09,9.54,1.23q25.16,1.78,50.29,3.84,50.19,4.11,100.25,9.41,102.22,10.81,203.8,26.52c66.76,10.24,133.33,21.65,199.85,33.37,67.51,11.91,135.13,24.93,203.12,33.8,134.19,17.49,268.87,24,403.53,7.64,31.9-3.86,63.6-12.44,94.58-20.86,28.89-7.86,57.42-16.92,85.42-27.53,58.27-22.09,114-50,172.06-72.66,123.25-48.18,253.23-74,382.89-98.25,3.65-.68,7.87-.85,11.42-2,5.77-1.79,2.15.69,3.25-2.6.85-2.53,0-6.62,0-9.35C1850.65,500.24,1781.7,514.43,1713,528.54Z" transform="translate(0.83 0.4)"/><path class="cls-1" d="M1748,762c-53.84,16.1-107.8,31.79-162,46.5-55.11,14.94-110.4,28.1-166.07,40-111.46,23.85-225.4,36.12-339.34,37.56-115.35,1.47-230.45-8.62-345-21.28C678.28,858.46,621.07,851.49,563.8,845c-56-6.35-112.12-12.51-168.21-15.66-117.38-6.58-234.72-8.66-352.28-9.12q-21.66-.08-43.31-.1v8.26C0,835.16-1.08,835,6.36,835l49.61.09c33.81.09,67.62.19,101.43.47,66.53.56,133.08,1.62,199.54,4.9,132,6.53,262.81,22.82,394.07,37,136.81,14.83,274.24,23.75,411.82,15.83,134.31-7.72,266.19-32.06,396.47-64.89,62.09-15.65,123.54-33.55,185.39-50,29.53-7.87,59.15-15.48,89-22.28q23.74-5.42,47.7-9.9,9.83-1.83,19.68-3.45c3.35-.56,17.38-1,19-3.37,2.07-3.11,0-14.22,0-18.18-29.27,4.78-58.25,11.15-87,18.41C1804.8,746.79,1776.69,757.22,1748,762Z" transform="translate(0.83 0.4)"/><path class="cls-1" d="M1624.82,595.58C1528.07,629,1436.59,676,1338.6,705.93c-98.41,30.07-201.55,43.47-304.26,44.88-111.07,1.53-223.2-10-332.69-28.21C592.72,704.47,484,685,374.68,669.12Q208.35,644.94,40.56,633.23,20.3,631.82,0,630.57V639c0,.74-.47,4.07,0,4.74.91,1.29,7.61,1,9.6,1.08q24.93,1.36,49.81,3.14,50.25,3.56,100.42,8.07,102.73,9.32,205,23.35c134.94,18.52,268.66,44.94,403.62,63.15,68.39,9.23,137.15,18.05,206.21,19.23,67.2,1.15,134.56-1.15,201.32-9.28,60.79-7.4,121.23-19.22,179.89-37,59.34-17.93,116.89-40.76,174-64.66,60.11-25.15,121.1-48.06,183.43-67.06,64.29-19.6,129.6-34.86,195.59-47.55,1.52-.3,10-.75,11.13-2.11.46-.57-.13-2.5,0-3.25.51-2.9,0-6.3,0-9.26C1820.06,539.63,1720.9,562.41,1624.82,595.58Z" transform="translate(0.83 0.4)"/><path class="cls-1" d="M1726,670c-25.06,10.6-51.27,18.47-76.61,28.4-26,10.16-53.05,18.09-79.34,27.43-52,18.45-105.29,36.19-159,48.88-54.6,12.9-108.84,24.9-164.64,31.6-55.4,6.65-112.17,12.44-168,12.79-113.06.73-225.68-7.38-337.47-23.22-115.37-16.36-230.57-34.13-346.37-47.25-116.65-13.2-233.9-20-351.2-24Q21.7,723.84,0,723.22v8.1C0,738-1,737.83,6.36,738q24.9.6,49.77,1.34Q107,740.87,157.81,743q100.38,4.28,200.5,13.83c131.36,12.43,261.45,33.79,392.26,50.65,68.13,8.78,136.39,15.92,205,19.91q50.18,2.91,100.45,3.72c34.42.56,69.25-2.62,103.55-5.28,67.92-5.26,135.65-12.7,202.11-27.91q93.61-21.43,185.06-50.85c122.53-39.62,242.74-90.11,368.6-118.4,5.89-1.32,4.69-1.42,4.69-7v-9.11q-50.46,11.63-100,26.76-24.79,7.54-49.34,15.89-12.3,4.17-24.53,8.54C1740.13,665.94,1732.45,670,1726,670Z" transform="translate(0.83 0.4)"/><path class="cls-1" d="M1727,544c-55.27,13.63-110,29.56-163.66,48.63-54.65,19.43-107.21,44.19-160.61,66.76-52.89,22.36-106.49,40.53-162.37,54-28.11,6.76-56,12.28-84.73,15.29q-43.71,4.59-87.65,6.37C952.46,739.79,836.73,729.75,722.8,712c-112.2-17.52-223.25-39.35-335.44-56.75Q215.79,628.6,42.81,615.32,21.4,613.71,0,612.27v8.4c0,.74-.47,4.06,0,4.73,1,1.39,7.63,1,9.6,1.16q25.13,1.63,50.23,3.51,51.23,3.85,102.34,8.9Q266,649.2,369.29,664.43c135.41,19.8,269.69,47.73,405.4,65.32,132.6,17.19,267.25,25.43,400.21,7.13,60.29-8.29,120.12-21.3,177.85-40.69,59.26-19.9,116-45.66,173.63-69.51,123-50.89,251.54-83.24,382.29-107.1,2.12-.38,10.38-.57,11.33-2,.47-.73-.15-2.52,0-3.4.53-3.05,0-6.61,0-9.72-31.89,4.7-63.63,12.66-95.24,19.05C1792.12,530.06,1759.51,536.78,1727,544Z" transform="translate(0.83 0.4)"/><path class="cls-1" d="M1648.2,610.89c-99.16,35.43-194.29,81-295.65,110.38-100.22,29-204.6,41.7-308.72,43.83-56,1.15-111.76-.3-167.47-6.16q-84-8.84-167.46-21.51C598.19,720.81,488.12,700.25,377.18,685,266,669.63,154.31,658.68,42.32,651.37,28.22,650.45,14.11,649.69,0,649v8.57c0,6.64.72,5.43,7.72,5.77q24.87,1.23,49.72,2.76,51.26,3.12,102.45,7.21c68.5,5.46,136.78,12.81,205,21.49,132.71,16.91,264.19,41.9,396.67,60.34C829,764.48,896.43,773,964.57,774.87c67.3,1.9,134.76.47,201.76-6.33a1389.05,1389.05,0,0,0,185.31-31.91c31.29-7.55,61.94-18.92,92.26-29.62,28.64-10.11,57.26-20.51,85.39-32,60.75-24.77,121.74-49,184.06-69.62a1698.44,1698.44,0,0,1,195.43-51.77c1.64-.34,10.23-1.08,11.22-2.37.47-.62-.16-2.45,0-3.25.59-3,0-6.58,0-9.63C1827.64,555.88,1736.76,579.24,1648.2,610.89Z" transform="translate(0.83 0.4)"/><path class="cls-1" d="M1624,834.38q-75.13,18.76-150.76,35.4c-52.29,11.43-104.67,20.37-157.77,27.15a2088.72,2088.72,0,0,1-328.42,16c-105.67-3.24-210.91-14.29-315.95-25.6C566.77,876,462.35,866.77,357.47,863,238.4,858.78,119.13,860,0,860v8.41c0,5.1-1.45,6.14,3.33,6.8,8,1.09,16.91,0,25,0l25-.1c33.81-.15,67.62-.4,101.43-.44,67.23-.08,134.59.34,201.8,2.06,134.07,3.43,267.31,17.74,400.69,30.64,66.34,6.41,132.62,12.74,199.17,15.34s133.28,2.5,199.84-.55,132.81-9.06,198.71-18.29c65.65-9.2,130.87-24.66,195.67-38.6,63.7-13.71,126.56-30.88,190.2-44.87,31.77-7,63.69-13.3,95.79-18.55q23.93-3.91,48-7c7-.9,14-.76,21.08-1.71,4.2-.56,12.84.41,14.37-2.73,2-4.11,0-13.79,0-18.51C1819.67,781.55,1721.26,809.13,1624,834.38Z" transform="translate(0.83 0.4)"/><path class="cls-1" d="M1700.46,658.84c-101.42,36.77-202,75.47-306.11,104-107.24,29.4-220.71,41.64-331.76,43-115.88,1.39-231-10.44-345.6-26.6-111.56-15.72-222.62-34.5-334.58-47.38-114-13.12-228.49-20.86-343.12-25.47Q19.64,705.59,0,704.92v8.56c0,6.85.78,5.4,8,5.64q24.87.81,49.74,1.76,51.6,2,103.16,4.78c66.89,3.65,133.69,8.69,200.32,15.6C491.64,754.79,620.87,777,750.86,794c135.73,17.79,272.22,27.83,409,17.55,66.86-5,134.94-12.2,200.16-28.12,61.35-15,122.13-32.36,181.91-52.75,123.73-42.2,245.44-93.56,373.33-122.11,5.87-1.31,4.72-1.32,4.72-6.81v-8.87C1845.13,609.06,1772.38,632.65,1700.46,658.84Z" transform="translate(0.83 0.4)"/><path class="cls-1" d="M1670.08,626c-51.33,18.65-101.64,39.82-152.65,59.27-49.12,18.73-98.81,36-149.08,51.39-24.28,7.43-49.75,12-74.66,16.84q-38.84,7.53-78,12.89a1408.9,1408.9,0,0,1-165.58,12.37c-56.82,1-114.44.53-171-5.64-56-6.1-111.78-13.46-167.46-21.72C601.4,735,491.75,714.93,381.18,700.71Q212,678.95,41.64,669.7,20.82,668.53,0,667.58v8.58c0,6.55.57,5.42,7.48,5.72q24.45,1,48.89,2.34,50.28,2.64,100.5,6.23Q259,697.74,360.68,709.8c132.74,15.81,264.24,39.91,396.6,58.32C825,777.54,892.34,785.51,960.7,787.9c68,2.38,136.19,1.39,204-4.77a1525.31,1525.31,0,0,0,187.68-29.33c32-7,63.5-18.2,94.56-28.36,29.2-9.56,58.26-19.58,87-30.31,61.56-23,122.23-48.13,184.36-69.6,63.61-22,127.93-40.59,193.79-54.5,6.43-1.36,7.87-.1,7.87-6.12v-9.07A1704.51,1704.51,0,0,0,1670.08,626Z" transform="translate(0.83 0.4)"/><path class="cls-1" d="M1687.71,641.9c-51.81,18.91-102.84,40-154.69,58.76q-75,27.14-151.57,49.37c-51.9,15-105.91,23.52-159.43,30.41a1479.65,1479.65,0,0,1-167.88,11.83C997.05,793.09,940,791,883,787c-56.34-3.92-112.82-13.46-168.68-21.65-110.87-16.26-221.26-35.53-332.51-49.12-113-13.81-226.56-22.75-340.29-28.2Q20.77,687,0,686.23v8.48c0,6.91.69,5.35,8.27,5.61q25.67.84,51.31,2.1c33.66,1.62,67.31,3.66,101,5.8,67.26,4.27,134.13,10.9,201.24,17,15.2,1.39,30.28,3.58,45.54,5.16,16.58,1.72,33.12,4.34,49.62,6.62,34.23,4.73,68.41,9.78,102.57,14.94,67.21,10.17,134.33,21.93,201.78,30.42,67.18,8.46,134.72,15.08,202.38,18.21,33.63,1.55,67.3,2.19,101,1.63,32.87-.56,66.74-1.09,99.28-5,14.5-1.76,29.14-2.14,43.76-4q24.81-3.11,49.54-6.66c32.29-4.67,64.79-9.22,96.47-17.11,63.06-15.71,125-35.61,186.26-57.18,31.17-11,62.18-22.37,93.14-33.9,30.41-11.31,60.63-24,91.55-33.86,31.3-10,62.36-20.68,93.67-30.63,31.6-10,63.93-17.87,96.24-25.26,5.18-1.19,5.47-.57,5.47-5.62v-9C1840.78,590.51,1763.67,614.11,1687.71,641.9Z" transform="translate(0.83 0.4)"/><path class="cls-1" d="M1411,836c-89.39,17.44-179,29.47-269.92,34.23-91.64,4.79-182.61,1.12-274-6.29C682.56,849,500,817.08,314.92,807.69,210,802.37,105,800.7,0,800.2v8.31c0,6.8-1.1,6.71,6.33,6.74q24.74.09,49.48.24c33.69.19,67.39.41,101.08.9,66.05,1,132.11,2.76,198.05,6.53,133.18,7.6,265,25.36,397.46,40.45,135.63,15.46,272.08,24.34,408.54,16.34,133.17-7.8,264-32.69,392.75-66.72,61.7-16.3,122.72-34.79,184-52.51,29.84-8.63,59.76-17,89.85-24.69,16.14-4.13,32.34-8,48.62-11.57q10.39-2.26,20.85-4.33c3.87-.76,7.73-1.5,11.61-2.22,2.07-.38,10.1-.62,11.37-2.13,2-2.31,0-14.1,0-17.38-66.71,12.39-131.82,31.91-196.52,52.08q-98.24,30.62-197.42,57.4C1487.92,817.94,1449.64,827.76,1411,836Z" transform="translate(0.83 0.4)"/><path class="cls-1" d="M1729.78,991.82c-115.86,5.29-230.91,19.43-346.36,29.85-121.23,11-242.8,16-364.53,13.83-120.41-2.16-240.58-10.75-361-13.57-121.23-2.84-242.57-1.93-363.82-1.93h-275c-2.83,0-18-1.54-19.14.11-1,1.34,0,7.35,0,9,0,3.45-.76,4.71,1.59,5.9s8.37,0,11.16,0H392.1c120.61,0,241.26-.56,361.81,3.77,121.35,4.35,242.56,10.85,364,9.77s242.65-10.67,363.71-21.31c116.74-10.26,233.18-20,350.48-15.46,29.31,1.12,58.6,2.91,87.86,4.93v-10.56c0-1.71.63-5.37,0-7-1-2.71.81-1.23-3.26-2.19-10.15-2.4-22.25-1.57-32.67-2.21s-20.59-1.21-30.89-1.68C1812.08,991.16,1770.91,990.94,1729.78,991.82Z" transform="translate(0.83 0.4)"/><path class="cls-1" d="M1363.1,1080c33.57,0,67.49,1.51,101-.19,97.06-4.92,194.24-9.62,291.47-8,54.79.89,109.66,3.32,164.41,5.54,0-6.29.18-5.69-6.68-6l-30.08-1.34q-28.4-1.26-56.8-2.39-56-2.2-111.94-1.93c-75,.47-150,3.59-225,7.45C1447.37,1075.27,1405.23,1077.69,1363.1,1080Z" transform="translate(0.83 0.4)"/><path class="cls-1" d="M1710.65,1017.05c-114.72,3.9-228.66,16.86-343.09,24.85-119.27,8.33-238.51,12.58-358.08,10.3-117.09-2.24-234-9.31-351.13-11.2-119.18-1.93-238.44-1-357.64-1H11.16C10,1040,1,1039,0,1040c-.43.46.13,2.33,0,3-.48,2.27-.66,7.53,0,9.66.14.45-.33,2,0,2.37,1,1.1,9.45,0,11.16,0H370.44c121.63,0,243.27-.79,364.88,2.13,61.31,1.48,122.62,3.46,183.92,5.21s122.65,4.27,183.91,3.37c121.93-1.81,243.19-8.34,364.79-17.28,121.18-8.9,242-16,363.47-11,29.55,1.23,59.07,2.8,88.59,4.51v-12c0-1.3.73-5.43,0-6.53-.91-1.36-9.38-1.07-11.3-1.2-22.11-1.43-44.22-2.71-66.36-3.69C1798.48,1016.66,1754.55,1016.35,1710.65,1017.05Z" transform="translate(0.83 0.4)"/><path class="cls-1" d="M1750.7,823.85c-57.87,12.43-115.35,26.51-173,40-59.64,14-119.93,25.72-180.21,36.57-123.85,22.28-251.33,29.33-377,27.48-64-.94-127.89-4-191.62-9.81-61.75-5.67-123.39-12.38-185.11-18.27-121.12-11.55-242.36-18.46-364-19.43C216.16,879.89,152.57,880,89,880H19.32c-3.17,0-17.88-1.52-19.32.52-1.1,1.56,0,7.38,0,9.34,0,6,0,5.14,6.43,5.14H54.88c125.11,0,250.41-1.51,375.46,2.82C552.64,902.05,674.11,915.48,796,926c126.34,10.91,253.48,18.26,380.2,10.26,63.88-4,128.23-8.81,191.44-19.1q90.93-14.8,181.16-33.52c113.72-23.51,226.69-55,343-62.63q10.45-.68,20.91-1.09c1.35,0,6.73.26,7.3-.42.39-.47-.13-2.19,0-2.82,1.16-5.43,0-12.3,0-17.89C1863,802.12,1806.48,811.83,1750.7,823.85Z" transform="translate(0.83 0.4)"/><path class="cls-1" d="M1590.86,1080h252.27C1759.09,1076.35,1674.92,1077.31,1590.86,1080Z" transform="translate(0.83 0.4)"/><path class="cls-1" d="M227.91,0H110Q168.89.33,227.91,0Z" transform="translate(0.83 0.4)"/><path class="cls-1" d="M603,1080h71.38Q638.76,1079.76,603,1080Z" transform="translate(0.83 0.4)"/><path class="cls-1" d="M1800,1042c-73.24,0-146.58-.8-219.7,4.2q-110.28,7.54-220.58,15.07c-36.2,2.42-72.42,4.59-108.67,6.13-17.65.75-35.3.51-53,.82s-35.18,1.76-52.79,1.79c-72.77.14-145.37-1.44-218.12-3.14-73.52-1.72-147-4.28-220.56-5.74-72.9-1.45-145.81-1.13-218.72-1.13H30.33c-8.47,0-18.9-1.71-27.14,0-3.61.75-2.2-.74-3.19,1.77-.54,1.37,0,4.24,0,5.73,0,6-1.79,7.5,4.78,7.5H325.56c144.79,0,289.89-2.7,434.62,1.52,72.46,2.12,145,3.48,217.44,3.48H1258c38.86,0,77.76-2.89,116.53-5.13,72.63-4.2,145.21-9.29,217.9-12.52,73.54-3.26,147-3.27,220.55-.8,35.67,1.2,71.33,2.82,107,4.53,0-4.1,1.88-13.31,0-16.78-1.52-2.81-6.11-1.9-9.92-2.14l-23.15-1.51C1858,1043.76,1829,1044.23,1800,1042Z" transform="translate(0.83 0.4)"/><path class="cls-1" d="M1842.24,857.93c-113.63,8.62-225.42,35.7-337.25,56.34-121.2,22.38-243.64,36.92-366.8,42.28-126.47,5.51-253.07-4.12-379.05-14.73-119.24-10-238.21-19.88-357.94-21.13-125.67-1.32-251.37-.69-377-.69H12.87c-2.78,0-9-1.16-11.26,0C-.95,921.3,0,923.76,0,927.5c0,1.29-.88,6.56,0,7.5s8.19,0,9.65,0H116.78c64.25,0,128.51.12,192.76-.06,63.86-.18,127.61,1.2,191.44,2.21,64.06,1,128,7,191.88,11.82S820.27,958.74,884,963.29c31.89,2.28,64,2.84,95.89,4.1s64,2.77,96.09,2.16c63.45-1.22,126.88-4.14,190.13-9.41,64.08-5.34,128-14.6,191.64-24.34,123.94-19,246.33-49.09,371.71-57.16,30.14-1.94,60.37-2.11,90.55-1.4V864.65c0-1.76.83-6.34,0-8-1.25-2.48-4-1.37-7.42-1.37Q1877.38,855.24,1842.24,857.93Z" transform="translate(0.83 0.4)"/><path class="cls-1" d="M1720,896c-118.19,19.19-235.93,41.34-354.68,56.91-59.58,7.81-119.62,14.32-179.69,16.62-60.43,2.32-120.77,5.11-181.21,2.71-120.88-4.82-241.51-14.18-362.09-23.59C522.61,939.31,402.42,940,282.44,940q-90,0-180.08,0H12.91C9.22,940,1.45,938.71,0,941.3c-1,1.73-.36,8.09,0,10C.89,956.14.35,955,6.47,955h22.7c120.59,0,241.18-.17,361.77.14,121.1.32,241.58,5.21,362.38,13.9,60.5,4.36,121,9.74,181.57,12.43q92.05,4.08,184.23,2.17c119.69-2.48,238.63-14.84,357-32.74,59.33-9,118.51-18.9,177.8-28.14,30-4.67,60-8.11,90.18-11.35,29.9-3.2,60-6.43,90.09-6.41,28.6,0,57.2.17,85.77,1.42V895.65c0-1.62,1.13-9.54,0-10.77-1.71-1.86-13.56-.46-16.46-.52q-8.22-.18-16.45-.22-17.27-.07-34.52.46C1808.21,886,1764,890.14,1720,896Z" transform="translate(0.83 0.4)"/><path class="cls-1" d="M1858,830c-13.74,3-28.32,2.92-42.27,4.93-14.5,2.08-28.93,4.55-43.35,7.05-30.17,5.23-60.08,11.15-90,17.53-61.16,13-122.26,26.38-183.61,38.52-61.17,12.1-123,24.45-185,30.64s-124.33,10.44-186.61,13.92c-62.72,3.5-125.95.56-188.65-2.74-63-3.32-125.81-8.31-188.61-13.9S624.28,912.66,561.38,909s-125.88-6.79-188.89-8.26C309.3,899.3,246.06,900,182.86,900L89,900H20.93c-2.73,0-19.79-1.51-20.93.22-.95,1.43,0,7.26,0,8.88,0,5.52-1.36,5.9,4.82,5.9h138.3c63.06,0,126.13-.4,189.19-.15s125.91,1.85,188.8,4.95c63.28,3.12,126.21,9.11,189.31,14.6s126.48,10.47,189.82,14.38c62.43,3.86,125.36,7.16,187.91,5.87,62.88-1.31,125.62-6.07,188.32-10.71,62.26-4.6,124.09-15.31,185.52-26.26s122.38-23.16,183.5-35.16c60.92-12,121.7-24,183.58-30a885,885,0,0,1,90.93-4.35V826.64C1899.29,826.76,1878.69,830,1858,830Z" transform="translate(0.83 0.4)"/><path class="cls-1" d="M1772,940c-30,0-61,3.64-90.75,7.14s-59.4,7.28-89.06,11.22c-60.87,8.1-121.58,17.57-182.6,24.39-121,13.51-242.89,22.63-364.73,21.25-123.71-1.4-247.1-11.14-370.57-18.16C552.65,978.93,430.78,980,309,980H14.35c-3.87,0-12.84-1.37-14.35,1.3-1,1.79,0,7.17,0,9.33,0,6.1,1.68,4.37,8,4.37H370.44c121.88,0,243.71.2,365.43,7.09,121.17,6.86,242.3,15.57,363.72,13.77,123.83-1.83,246.74-12.11,369.65-26.75,61.12-7.28,122.19-15.8,183.45-21.75,29.51-2.86,59.16-4.4,88.66-7,29.85-2.61,59.83-1.09,89.74-1.16,29.67-.08,59.29,2.49,88.91,4.34,0-5,2.12-15.23,0-19.64-1.55-3.23-11.66-2.33-15.86-2.63q-13.48-1-27-1.72c-17.17-.94-34.43-.39-51.62-.71C1807.68,938.54,1789.78,938.28,1772,940Z" transform="translate(0.83 0.4)"/><path class="cls-1" d="M1793.3,913.46c-115.39,6.76-229.36,29.28-343.6,45.64C1326.81,976.7,1203,987.44,1078.86,988c-124.85.56-249.09-9.45-373.56-17.77-121.8-8.14-243.4-9.83-365.45-10.11q-94.73-.21-189.45-.12H8.09c-1.5,0-7.5-.54-8.09.22-.47.59.14,2.66,0,3.45-.31,1.73-.93,8.92,0,10.5,1.23,2.1,13,.83,15.94.83h354.5c61.92,0,123.82.21,185.73,1.49,60.73,1.25,121.32,4.78,181.93,8.63,126.8,8,253.42,16.71,380.57,14.18C1242,996.84,1365,985,1487.12,967.83c114.49-16.14,229.72-36.07,345.64-35.86q43.7.09,87.24,3.46c0-5.34,1.9-14.43,0-19.3-.17-.42.31-1.87,0-2.24-.77-.88-6.72-.47-7.75-.54q-11.54-.74-23.08-1.14C1857.22,911,1825.22,911.6,1793.3,913.46Z" transform="translate(0.83 0.4)"/><path class="cls-1" d="M1819,965c-121.56,0-241.14,16.91-361.67,30.26-122.55,13.59-246.27,25.06-369.68,24.73-62.25-.17-124.47-2.22-186.64-5.09q-47.47-2.19-94.91-4.88c-31-1.7-62.22-4.58-93.28-5-60.93-.88-121.8-3.61-182.75-4.23s-122-.76-182.93-.76H25.53c-6.82,0-15.74-1.48-22.34,0-4.33,1-3.19,1-3.19,5.9,0,1.77-1,7.43,0,8.88,1.13,1.71,18,.22,20.73.22H342.16c123.78,0,247.56-.23,371.27,4.38,124.79,4.65,249.75,13.84,374.67,12.63,124-1.21,247.16-9.28,370.32-22.17s246.51-28.4,370.73-24.3c30.31,1,60.6,2.71,90.85,4.86V975.6c0-.92.65-4.74,0-5.53-1.56-1.87-15.2-1.34-17.67-1.48C1874.57,967,1846.75,966.85,1819,965Z" transform="translate(0.83 0.4)"/><path class="cls-1" d="M1815.26,199.3c-123.55,1.53-247.14.7-370.69.7-124.29,0-248.72-1.69-373,.93-59.56,1.25-118.7,4.71-177.94,11.11-57.59,6.22-114.82,15.12-172.13,23.47-57.15,8.34-114.51,16.6-172.23,19.54-52,2.65-104,1.05-156-2.55C277.14,244.42,161.45,230,45.41,220.16Q22.72,218.23,0,216.46v7.77c0,1.46-.53,4.55,0,5.94.94,2.47-.3,1.26,3.32,2.13,7.24,1.74,15.83,1.44,23.26,2.13q13.29,1.24,26.58,2.52,49,4.74,98,9.91c65.89,6.9,131.76,14.12,197.67,20.84,65,6.63,130,11.37,195.35,9.92S674.48,265.72,739,255.23c62.67-10.2,125.3-22,188.33-28.7,65.55-7,131.43-10.67,197.33-11.38,130.9-1.39,261.88-.15,392.79-.15s261.83.63,392.76-4.73c1.46-.05,8.91.41,9.78-.66.45-.55,0-3.36,0-3.94v-9C1885.07,198.05,1850.19,198.48,1815.26,199.3Z" transform="translate(0.83 0.4)"/><path class="cls-1" d="M1813.79,160H1461.72c-119,0-238-.19-357,0-58.4.11-116.87.31-175.21,2.95-58.82,2.66-117.5,7.74-176.09,13.5S636.49,188.67,578,194a1575.33,1575.33,0,0,1-177.16,6.27c-118.73-2.52-237.48-14.94-355.89-23.56Q22.46,175.12,0,173.57c0,3.05-1.85,14.29,0,16.39.61.69,7.29.54,8.75.69,3.62.36,7.32.46,11,.66,8.67.48,17.32,1.23,26,1.65,33,1.61,66.06,6,99,8.73C210.84,207.23,277,212,343.12,217.22c65.45,5.14,131.16,4.64,196.7,1.33C606,215.21,672,206,737.73,198c63.7-7.71,127.74-16.36,191.94-18.21,31.84-.91,63.6-3.15,95.46-3.81,32.61-.68,65.23-.9,97.84-1,132.09-.28,264.17,0,396.26,0,131.35,0,262.81,1.55,394.13-1.93,6.85-.18,6.64.69,6.64-5.45v-8.37C1884.59,160,1849.21,160,1813.79,160Z" transform="translate(0.83 0.4)"/><path class="cls-1" d="M1152.09,140c-148.35,0-296.85.36-444.34,14.79C632.9,162.12,558.09,169.11,483,172.15c-75.95,3.07-151.53.4-227.38-3.64C170.36,164,85.18,157.93,0,152.16c0,3.45-1.87,13.39,0,16.09,1.5,2.16,20.28,1.28,23.43,1.48q13.4.87,26.78,1.78,49.38,3.35,98.74,7.15c33.4,2.56,66.87,6.26,100.33,7.64,32.54,1.35,65.08,5.61,97.65,5.71,32.9.1,65.57,2.52,98.51,2,32.56-.57,65.09-2.12,97.59-4.13,65.26-4,130.28-12.21,195.37-18.44s130.31-11.61,195.68-14.06c65.12-2.45,130.34-2.31,195.49-2.33q197.29-.06,394.57,0h197.14c32.5,0,65-.12,97.5,0q24.9.1,49.81-.13c15.59-.14,32.68,1.55,48.09-.68,4.82-.7,3.32-1.61,3.32-6.59v-8.09c-199.09,2.11-398.27.46-597.37.46Z" transform="translate(0.83 0.4)"/><path class="cls-1" d="M1705,278c-113.12,3.33-226.26,1.41-339.42,1.42-57.43,0-114.78,1.69-172.19,2.69a1190.59,1190.59,0,0,0-166.84,14.42c-54.7,8.76-108.7,21.42-162.23,35.61-26.79,7.1-53.32,15.29-80.4,21.2-27.27,6-54.74,10.93-82.3,15.36A376.52,376.52,0,0,1,659,372.77c-14,.66-28.8,2.9-42.72,1.75-26.77-2.2-53.67-1.1-80.48-3.78-53.08-5.31-105.38-13.07-158.15-21.11-111.41-17-223.29-34.35-335.44-45.47q-21.07-2.1-42.16-4V308c0,1.47-.53,4.59,0,6,.94,2.47-.36,1.26,3.26,2.15,7.13,1.75,15.51,1.43,22.83,2.12q13.05,1.25,26.09,2.51c33,3.21,65.9,7.95,98.79,12.51Q249.82,347,348.39,362.56q49.28,7.81,98.48,16.19c31.9,5.44,64.64,8.7,96.82,12.43,64.54,7.48,128.94,7.88,193.19-2.16,63.28-9.89,123.76-30.81,185.44-47.44,63.31-17.08,126.9-30.28,192.06-37.91,65.75-7.69,132.06-7.56,198.17-8.37,66.43-.82,132.87-.46,199.31-.53,133.06-.16,265.46-6.39,398.16-15.92,1.45-.1,9.14.14,10-1,.47-.62-.09-3.07,0-3.76.36-2.76,0-5.79,0-8.59C1848.41,270.68,1776.78,276.11,1705,278Z" transform="translate(0.83 0.4)"/><path class="cls-1" d="M1814.35,179.73c-118.3.59-236.61.27-354.91.27-118.9,0-237.81-.57-356.71.12-117.23.68-233.94,7.32-350,22.59-59.74,7.85-119.51,15.71-179.56,20.83-59.24,5-118.11,5.18-177.48,2.6s-118.79-7.39-178.06-12.7c-58.58-5.24-117.48-13-176.25-15.46C27.58,197.41,13.69,195.64,0,195c0,3.33-1.85,13.45,0,16,2.11,2.9,17.82,1.63,21.31,1.83q13.1.76,26.18,1.72c32.88,2.38,65.69,5.58,98.46,9.06Q243.86,234,342,242c65.55,5.29,131.36,8.81,197.12,6.2,65.51-2.61,131.17-12.29,196.09-21.86,64.6-9.52,129.23-18.42,194.32-24.1,64.91-5.66,130.23-7.15,195.36-7.26q197.77-.31,395.53,0c131,0,262,1.53,392.91-2.94,6.92-.24,6.66.6,6.66-5.6v-8.53C1884.9,179.27,1849.49,180.1,1814.35,179.73Z" transform="translate(0.83 0.4)"/><path class="cls-1" d="M1631.49,259.71c-109,.57-218,.29-327,.29-106.92,0-213.73,1.29-319.76,16.64-105.38,15.26-207.36,47.79-312.88,62.63-102.67,14.43-206.16-1.77-308-15.15C242.68,308.22,121.77,289.72,0,279c0,3.09-1.81,13.53,0,15.77.93,1.16,11.34,1.08,13,1.24l11.37,1.11q12.19,1.2,24.38,2.45c32.5,3.36,65.1,6.53,97.41,11.43C212,321,278,329.82,343.94,339.09c66.11,9.29,132,20,198.57,25.11,32.82,2.51,65.77,3.66,98.68,2.3s64.75-7.33,97-12.94c64.2-11.18,126.67-30.45,190.17-45,32-7.35,64.07-13,96.54-17.68q24.34-3.49,48.78-6.38c14.66-1.75,29.33-2.2,43.83-4.07,15.62-2,31.69-1.31,47.43-2.54,16.06-1.26,32.09-1.31,48.2-1.49,33-.38,66-1.56,99-1.58,66.61,0,133.22.44,199.83.36,132.89-.16,265.53-3.26,398.1-12.63,1.89-.14,9,.44,9.92-.83.41-.58-.13-2.51,0-3.23.54-3,0-6.51,0-9.56C1823.88,255.28,1727.82,258.65,1631.49,259.71Z" transform="translate(0.83 0.4)"/><path class="cls-1" d="M1651.22,220H1325c-107.61,0-215.52-2.53-322.89,6-53.52,4.26-106.85,10.7-159.88,19C789.37,253.31,737,264,684.11,271.72s-105.61,14-159.06,13.38q-80.71-1-160.92-9.79C242.86,262.2,121.64,246.79,0,237.63c0,3.48-1.87,13.38,0,16.12,1.53,2.24,20.05,1.74,23.25,2q13.29,1.16,26.57,2.35c33.12,2.95,66.13,6.49,99.16,10.33q98.22,11.4,196.41,23.06c65.52,7.67,130.67,14.57,196.72,15.46,65.57.88,131.08-7.24,195.39-19.79s128.24-25.66,192.9-35.41c64-9.65,129.06-14.15,193.72-16,65-1.82,130.21-.81,195.24-.81h195.91c131.8,0,263.35-.46,395-7.07,6-.3,9.72,1.66,9.72-4.61v-8.83C1830.62,219.67,1740.74,221.11,1651.22,220Z" transform="translate(0.83 0.4)"/><path class="cls-1" d="M1630.78,240h-323c-52.49,0-105,0-157.46.65-54,.63-108,5-161.8,9.82-25.82,2.33-51.26,7.46-76.87,11.4-26,4-51.51,8.72-77.22,14-52.81,10.88-105.58,22.23-159,29.63-52.23,7.22-104.37,11.09-157.09,8.41-53.76-2.73-107-8.05-160.45-14.6C238.73,284.72,119.62,269.17,0,258.46c0,3.45-1.85,13.22,0,15.94,1.51,2.22,20,1.8,23.15,2.1q13.25,1.23,26.46,2.57,49.64,5,99.16,11.08c66.06,8,132,17.09,197.89,26.12,64,8.76,127.85,16.94,192.46,19.78,16.46.72,32.93,1.12,49.41,1.1,16,0,31.83-1.71,47.81-2.47,31.5-1.48,63.52-7.54,94.54-13.13,63.82-11.5,126.65-28.43,190.37-40.53,64.91-12.33,130.36-19.48,196.32-23,66.15-3.5,132.29-3,198.5-3q98.78,0,197.55,0c132.36,0,264.25-2,396.42-9.52,1.46-.09,9.1.26,10-.83.44-.56,0-3.27,0-3.85V232C1823.64,237.35,1727.28,239.82,1630.78,240Z" transform="translate(0.83 0.4)"/><path class="cls-1" d="M1152.09,120c-75.07,0-150.17-.67-225.24.37-74.56,1-148.92,5.47-223.3,10.63-74.78,5.19-149.63,12-224.55,15-75.69,3.05-151.22,1.36-226.85-1.8C168.05,140.69,84,135.66,0,131c0,3.44-1.87,13.46,0,16.14,1.5,2.14,20.11,1.15,23.24,1.33q13.28.78,26.54,1.58,49.76,3,99.48,6.26c65,4.21,130,7.87,195.13,10.58,131.3,5.47,263-9.76,393.66-20.58C869.37,135.44,1000.48,135,1132.16,135h685.9q24.21,0,48.43-.06c16.26-.05,34.06,1.9,50.16-.28,4.87-.65,3.35-1.6,3.35-6.64v-8.2c-199.11,1-398.25.18-597.37.18Z" transform="translate(0.83 0.4)"/><path class="cls-1" d="M812.93,20c-211.84-1.28-423.49,9.81-635.32,7C118.4,26.23,59.2,25.07,0,23.89c0,3.91-1.35,10.43,0,14s1.67,2.32,6.7,2.45l21.76.55q39.36,1,78.7,2c51.36,1.21,102.7,2.41,154.07,2.18,102.71-.46,205.38-3.86,308-6.65C775,32.77,980.94,35,1186.75,35h711.3c5.55,0,13.5,1.48,18.82,0,4-1.13,3.13,0,3.13-4.37,0-2.37.86-6.67,0-8.86-1.11-2.82-2.81-1.77-6.26-1.77H812.93Z" transform="translate(0.83 0.4)"/><path class="cls-1" d="M1152.09,100c-149.46,0-298.92-1.35-448.22,6.54-75.32,4-150.53,9.89-225.87,13.46-75.07,3.56-149.93,2.8-225,.38-84.36-2.72-168.67-6.82-253-10.67,0,3.42-1.86,13.38,0,16,1.34,1.91,20.54,1,23.3,1.13q13.32.65,26.63,1.32,49.11,2.48,98.21,5.11t98.2,5.33c33.5,1.83,67,1.55,100.54,2.55,65.23,1.95,130.66-1.93,195.77-5.89,65.8-4,131.55-8.81,197.34-13C871.19,114,1002.42,115,1133.82,115h684.25q25.1,0,50.21,0c15.68,0,32.85,1.93,48.38-.12,4.87-.64,3.34-1.62,3.34-6.67V99.94q-297.85.48-595.7.06Z" transform="translate(0.83 0.4)"/><path class="cls-1" d="M812.93,40C602,40,391.42,53.42,180.5,49.75,120.33,48.7,60.16,47.11,0,45.4c0,3.82-1.32,10.18,0,13.68s1.76,2.27,6.69,2.41l23.4.7L107,64.53c50.85,1.56,101.63,2.9,152.49,3.32,102.15.85,204.34-2.9,306.45-6.45C667.14,57.88,768.17,55.08,869.46,55q155.3-.09,310.61,0h733.67c6.16,0,5.26,1.38,6.26-3a27,27,0,0,0,0-9.06c-1-4.32,2-1.48-3.13-3s-13.32,0-18.82,0H812.93Z" transform="translate(0.83 0.4)"/><path class="cls-1" d="M812.92,0Q654,0,495.23,2.43c-105.34,1.62-210.65,4-316,3.19C119.49,5.14,59.74,4.27,0,3.36V15c0,.84-.48,3.24,0,3.86,1.1,1.44,14.45.5,16.65.55l64.88,1.36c43.11.9,86.17.86,129.28,1.22,86.63.71,173.21-1.28,259.82-3.31C642.75,14.63,814.87,15,987,15h920.56c2.16,0,11.52,1.14,12.41-.11.6-.84,0-4.7,0-5.79,0-2.15,1-8-.45-9.1-1.24-.91-6.6,0-8.08,0H812.92Z" transform="translate(0.83 0.4)"/><path class="cls-1" d="M813.8,60.38c-106,1.14-211.89,4.95-317.79,8.84C443.56,71.15,391,74,338.54,74.07c-53.64,0-107.27-.8-160.89-2.07C118.42,70.6,59.21,68.65,0,66.7c0,3.91-1.35,10.39,0,14S1.61,83,6.61,83.19l23.14.88q38,1.46,76,2.91c50.75,1.91,101.5,3.66,152.27,4.8,102,2.31,204.4-2.75,306.3-7.26S768,75.9,870,75.25c102.29-.65,204.59-.25,306.89-.25h736.72c6.08,0,6.43,1.18,6.43-4.37,0-2.37.54-5.37,0-7.66-1-4.22-.54-3-6.26-3H1505.22c-205.24,0-410.48-.36-615.72.06Q851.66,60.15,813.8,60.38Z" transform="translate(0.83 0.4)"/><path class="cls-1" d="M982.51,80c-128.08,0-255.75,2.36-383.69,8.63-63.8,3.13-127.59,6.44-191.44,8.56-63.23,2.11-126.75.61-190-1.07C144.9,94.19,72.46,90.34,0,87.66c0,4.06-.94,9.47,0,13.39.89,3.72-2,2,3.31,3,6.3,1.19,13.4.63,19.84.94q36.38,1.76,72.74,3.58c48.54,2.39,97.07,4.7,145.64,6.33,95.58,3.22,191.32.92,286.81-4,97.69-5,195.19-12,293-14.52C917.17,93.91,1013.05,95,1108.9,95h788.57c6.17,0,13.23,1,19.32,0,4.14-.66,2.45.65,3.21-3,.47-2.25,0-5.34,0-7.65,0-4.61,1.13-3.68-3.21-4.37-11.1-1.77-24.21,0-35.46,0H982.51Z" transform="translate(0.83 0.4)"/><path class="cls-1" d="M1272,365c-41.66,2.78-84.13,7.75-124.82,17.05a927.1,927.1,0,0,0-119.83,36.1c-35.9,13.51-70.9,28.44-106.75,41.42-39.39,14.27-79.78,24.64-121.54,28.6-20.75,2-41.59,4.09-62.43,3.66-21.72-.45-43.41-1.76-65-3.72-42-3.81-83.78-10.06-125.38-17.05-43.32-7.28-86.16-17-129.29-25.3q-65.12-12.54-130.52-23.4C191.19,406.39,96,391.92,0,381.76V390c0,5.39-1.56,6.56,4.25,7,15.72,1.23,31.33,3.2,47,5.08,32.34,3.88,64.4,8.83,96.64,13.4,66.9,9.48,133.52,20.77,199.94,33.15,66.79,12.45,133.2,26.95,200.07,38.85,62.75,11.17,125.61,22.56,189.46,24.28,61.79,1.66,124.2-4.67,183.34-23.24,61.93-19.44,119.17-51.4,180.94-71.55,31.17-10.17,62.51-18.91,94.84-24.51,32.54-5.64,65.4-9.16,98.27-12.26,67.67-6.37,136.17-6.39,204.08-9s135.6-5.67,203.3-10.41c67.26-4.7,134.29-12.33,201.36-19.23,4-.42,15,.08,16.52-2.81,1.09-2,0-7.18,0-9.57-83.93,8.29-168,15.77-252.1,21.48s-168.57,6.75-252.88,8.92C1367.33,360.83,1319.64,362.33,1272,365Z" transform="translate(0.83 0.4)"/><path class="cls-1" d="M1710,296c-115,4-229.75,3.48-344.74,3.63-112.06.15-224.7,1.63-335.06,23.12-26,5.06-51.32,11.63-77,18.17-26,6.61-51.59,14.38-77.15,22.39-53.36,16.73-107.82,30.3-163.37,37.51C685,404.43,657,404.24,629,403.89a770.67,770.67,0,0,1-81.51-5.24c-56.32-6.76-112.3-15.94-168.23-25.35-56.87-9.58-113.93-17.85-170.94-26.59-56.25-8.63-112.51-15.31-169-21.92-13.12-1.53-26.12-3-39.3-3.86v8.52c0,5.1-1.37,6.1,3.3,7.2,15.61,3.71,33.4,3.35,49.39,5.07,33.49,3.59,66.91,7.43,100.21,12.51q98.55,15,196.94,31c129.56,20.85,258.94,51.49,390.92,37.27,65.6-7.07,129.31-29.91,191.67-50.25a1227.47,1227.47,0,0,1,193.39-45.76c32.52-5,65.52-6.14,98.35-7.83,33-1.71,66-2.85,99.08-3.09,67.1-.5,134.21-.58,201.3-1.43s134.26-2.46,201.3-6c33.32-1.77,66.55-4.39,99.82-6.88,13.61-1,27.4-1.74,40.84-3.07,14-1.4,28.34-2.71,42.49-3.22,2.55-.09,7.4.44,9.67-.93s.53,0,1.33-2.38c.91-2.67,0-7,0-9.9-35.47,2.75-70.93,5.62-106.4,8.27C1779.09,292.64,1744.5,293.35,1710,296Z" transform="translate(0.83 0.4)"/><path class="cls-1" d="M1711,412.48c-116.27,12.4-233.67,17.94-349.36,35.2-28.38,4.24-56.6,9.54-84.5,16.24-27.7,6.65-54,16-80.2,27.1-52.62,22.33-102,52.27-155.8,71.74-102.57,37.07-214.2,34-320.8,19.8-107.92-14.38-214-39.21-320.64-60.66C280.86,498,160.56,478.12,40.07,464.73Q20,462.51,0,460.57v8.91c0,7,.49,5.65,8.23,6.47q25.49,2.7,50.94,5.77Q110,487.83,160.71,495.2c67,9.68,134.16,19.84,200.66,32.51,66.24,12.62,132.19,27.53,198.28,41,66.44,13.56,133.48,25.07,200.79,33.46,66.53,8.3,136.11,9.53,202.78,2.53,30.75-3.23,61.19-12,90.48-21.74a616.28,616.28,0,0,0,86.3-36c29-14.81,58.13-32.69,89-42.94,6.71-2.23,13.16-6.32,19.78-9,8-3.22,16.22-6,24.49-8.52,15-4.54,30.21-8.11,45.46-11.56,31.75-7.2,63.22-13.3,95.49-17.84,33.81-4.76,67.73-8.75,101.69-12.37,67-7.16,134.11-13.45,201-21.32,62.12-7.3,124.2-14.57,186.43-22.61,4.13-.53,15-.22,16.61-3.25,1.11-2.09,0-7.35,0-9.8C1850.35,396.19,1780.75,405,1711,412.48Z" transform="translate(0.83 0.4)"/><path class="cls-1" d="M1586.67,477.8c-101.2,15.17-204.48,32-297.16,77.35-46,22.5-90.75,47.27-139.12,64.58-47.72,17.08-97.44,26.77-147.69,32.68-25.72,3-52.34,2.15-78.21,1.77q-40.85-.6-81.61-3.77c-50.89-3.94-101.54-10.8-151.9-19C584.52,614,478.91,591.4,373.07,570.7c-109.72-21.46-221-36.82-332.21-48.18q-20.41-2.09-40.86-4v9.52c0,.92-.42,3.34,0,4.11.89,1.65,7.11,1.22,9.39,1.43q25.64,2.35,51.24,5c34.71,3.6,69.34,7.87,104,12.34C233.05,559.77,301.19,570,369,583c129.94,24.72,259.58,53.12,390.72,70.8,64.9,8.75,130.16,14,195.67,14.61a670.12,670.12,0,0,0,100.05-6.94c30-4.23,61.37-8.54,90.44-17.42,62.44-19.09,119.81-50.92,178.22-79.36,55.71-27.12,116.22-43.45,176.63-56.36,64.57-13.79,129.84-23.33,195.1-33.15,68.3-10.27,136.53-21.09,204.92-30.78,4.37-.62,17.52-.58,19.24-3.81,1.08-2,0-7.23,0-9.67C1808.79,445.74,1697.83,462.52,1586.67,477.8Z" transform="translate(0.83 0.4)"/><path class="cls-1" d="M1545.74,446.42c-51,5.3-102,11.18-152.56,19.63-50,8.35-100.56,19-147.36,38.92-48.54,20.62-94.17,47.25-142.64,68-46.36,19.83-96.26,34.18-146.6,38.26-100.89,8.18-201.27-2.71-300.64-20.06C558.18,574.08,461.47,551.92,364,533.27c-107.8-20.64-216.85-37.72-326-49.53q-19-2.07-38-3.85v9c0,6.26-.73,5.76,6.08,6.43q24.87,2.46,49.71,5.17Q108.5,506.25,161,513.77c69,9.84,137.9,20.44,206.33,33.66,130.38,25.19,260,56.32,391.87,72.68,63,7.81,126.36,11.38,189.78,8.7,63.88-2.7,126.51-17.77,185.28-42.93,59-25.26,113.63-61.16,175.13-80.46,59.73-18.74,121.53-29.49,183.41-38.19,66-9.27,132.28-16.22,198.4-24.34,69.84-8.57,139.52-18.31,209.3-27.4,4.43-.58,17.85-.5,19.53-3.65,1-1.94,0-7.37,0-9.64C1795.32,417.85,1670.74,433.41,1545.74,446.42Z" transform="translate(0.83 0.4)"/><path class="cls-1" d="M1531,507c-48.5,11.19-97.33,21.84-144,39.5-11.69,4.42-23.22,8.22-34.71,13.28s-23.06,10.4-34.3,16.22c-21.85,11.31-43.81,22.38-66.08,32.84-45,21.13-91.68,40.64-140.86,48.81-50.09,8.32-99.77,16.21-150.71,15.62C856.91,672.08,753.66,659.13,652,640.84c-103.16-18.56-206-38.75-309-58.45C229.7,560.71,114.6,548.82,0,537.59V547c0,.91-.41,3.27,0,4,.88,1.64,7.19,1.18,9.46,1.38q25.8,2.26,51.59,4.83c34.84,3.45,69.61,7.52,104.35,11.78q102.15,12.54,203.26,30.88c128.51,23.36,256.54,50.63,385.93,68.79,67,9.4,134.4,15.54,202.08,17.37,65.27,1.76,131.2-6.29,195.18-19.07,30.68-6.13,61.4-18.56,90.36-30.2,30-12.08,59.09-26.51,88.14-40.79,27.94-13.73,55.65-27,84.88-37.8a938.4,938.4,0,0,1,90.57-28c62.55-16.12,126.09-27.41,189.76-38.06,68.3-11.42,136.61-23,205.11-33.11,4.41-.65,17.59-.68,19.33-4,1.09-2,0-7.32,0-9.79C1790.06,463.62,1660.11,483.53,1531,507Z" transform="translate(0.83 0.4)"/><path class="cls-1" d="M1552,524c-25.92,6.26-51.59,13.47-77.22,20.78-24.29,6.93-47.69,16.59-71.33,25.39-24,8.93-46.77,21.21-69.78,32.39-22.47,10.91-45,21.72-67.93,31.66-45.49,19.72-93.28,35.89-142.33,43.95-24.43,4-49.08,6.43-73.75,8.45-25.13,2.06-50.22,4.62-75.44,4.13-210.73-4.07-416-54.39-622.68-90.09C235,580.53,117.77,566.45,0,556.2V565c0,7,.51,5.57,8.23,6.14q25.51,1.88,51,4.19,50.09,4.54,100,10.64c67.13,8.13,134,18.1,200.72,29.18,133.49,22.17,265.93,50.6,399.93,69.64,131.91,18.75,266.38,24.39,398.25,2.17,124.45-21,229.46-97.75,349.36-132.9,63.78-18.69,129.16-34.55,194.8-45.86,67.17-11.57,134.08-24.62,201.45-35,4.11-.64,14.63-.54,16.25-3.59,1.12-2.11,0-7.39,0-9.86-62.26,9-124.25,19.66-186.27,30.15C1673.07,500.2,1611.83,509.49,1552,524Z" transform="translate(0.83 0.4)"/><path class="cls-1" d="M1460,477c-23.36,5.84-47.47,8.5-71,13.88-22.74,5.21-45.22,11.43-67.55,18.15-45.77,13.76-89,37.08-131.09,59.49-41.86,22.3-87.12,40.37-133.42,50.93-23.29,5.32-47.13,10.88-71,12.53-24.71,1.71-49.47,2.58-74.24,2.88-97.23,1.21-195.48-15.05-290.86-32.48C524.51,584.77,429.11,562,332.59,545.3,222.37,526.21,111.4,509.73,0,499.39V509c0,1-.5,3.26,0,4.17.9,1.65,7,1.24,9.28,1.46q25.35,2.43,50.66,5.15c35,3.75,69.92,8.19,104.8,13,68.13,9.33,136.13,19.52,203.64,32.6,130,25.2,259.58,54.85,391,72,64.3,8.38,129,12.94,193.87,12a580.44,580.44,0,0,0,188.28-34c60.51-21.85,114.63-56.74,173.9-81.19,57.28-23.63,119.67-36.12,180.46-46.77,66.08-11.59,132.68-19.71,199.15-28.7,68.69-9.3,137.25-19.57,205.94-28.9,4.2-.57,17.34-.58,19-3.71,1.08-2,0-7.67,0-10-60,8.37-120,17-180.11,24.95s-120.34,13.87-180.38,21.79C1526.3,467.24,1493.17,472.26,1460,477Z" transform="translate(0.83 0.4)"/><path class="cls-1" d="M1711,331c-27.51,1.1-55.08,3.53-82.58,4.15-28.29.63-56.57,1.29-84.85,2.22-57,1.87-114,2.3-171,3.14-57.68.86-115.41,2.39-172.86,7.85-55.88,5.31-110.29,17.37-164.05,33.05C983.35,396.65,933.73,419,881.74,434.92,829,451.08,774.55,463,719.14,463.48c-114.23.94-226.38-25.7-338.17-45.67-112.67-20.13-225.66-38.4-339.31-51.94-13.88-1.65-27.73-3.48-41.66-4.58v8.52c0,5.09-1.36,6.09,3.29,7.24,7.76,1.91,16.69,1.82,24.65,2.72q13.14,1.5,26.28,3.08,50.06,6,99.95,13.29c66,9.56,131.82,20.59,197.42,32.7s130.85,25.24,196.54,36.53c63.25,10.88,127.33,20.24,191.67,19.19,65.54-1.07,128.75-15,190.14-37.44,29.92-10.94,59.34-23.18,89-34.78,30-11.76,60.8-20.13,91.93-28.48,63.36-17,128.16-21.05,193.3-26.46,33.51-2.78,67.72-1.73,101.35-2.51q50.74-1.18,101.5-2.68c67.15-2,134.29-4.68,201.36-8.59,66.11-3.85,132.21-11.12,198.35-17.42,3-.29,9,.44,11.61-1.1,2.86-1.7.74.45,1.66-2.22.86-2.47,0-6.56,0-9.23-35.38,3.13-70.78,6.1-106.15,9.43C1779.61,326.31,1745.28,328.14,1711,331Z" transform="translate(0.83 0.4)"/><path class="cls-1" d="M1684.12,516.08c-53.54,11-107,23.08-159.3,39.06-51.7,15.79-100.61,36.58-149.39,59.67-46.55,22-93.29,43-142.77,57.58a795,795,0,0,1-151.64,29c-115.48,10.81-231.56.2-345.9-16.82-113.26-16.86-225.56-39.63-338.38-59.09C279.1,605.14,160.9,588.89,42,578.39q-21-1.85-42-3.51v9.36c0,.91-.41,3.29,0,4,.88,1.63,7.28,1.12,9.55,1.29q26,2,52,4.31,51.12,4.5,102.11,10.35Q266.86,616,369.29,632.72C501,654.37,631.9,680.84,764,699.74s265.79,24.67,398.16,6c62.14-8.78,124-30.17,181.65-54.54,58.19-24.6,114.25-53.42,173.92-74.46,61.2-21.58,124.51-37.91,188-51.26,65.82-13.84,132.2-26.75,198.63-37.32,4-.64,8.71-.7,12.52-2,5.68-1.88,2,.77,3.12-2.53.83-2.47,0-6.48,0-9.16C1841.06,486.32,1762.54,501.24,1684.12,516.08Z" transform="translate(0.83 0.4)"/><path class="cls-1" d="M1599,318c-108.9,2.07-217.89,2.84-326.8,4.07-102.93,1.16-205.8,16.26-304.1,47-48.77,15.27-96.37,33.42-146,46-24.73,6.28-50,12.25-75.37,15.22-27,3.15-54.42,4-81.61,3.54-52.46-.87-104.68-7.19-156.42-15.55-51-8.25-102.39-17-153-26.8-28.31-5.48-57.52-9.17-86.1-13.87q-44.2-7.28-88.52-13.87C120.93,354.9,60.56,347.13,0,341.19v8.39c0,5.1-1.36,6,3.33,7.11,7.89,1.87,16.86,1.7,24.93,2.56q13.31,1.41,26.59,2.92c33.21,3.78,66.22,8.52,99.26,13.57,66.5,10.17,133,20.7,199.25,32.12,130,22.39,261.27,55.26,394.16,46.6,62.81-4.09,124.53-24.21,183.17-45.78,58.21-21.42,117-41.49,178-53.47,129.73-25.5,263.66-18.89,395.12-21.55,67.52-1.36,135-3.52,202.49-7.09,67-3.55,133.67-9.92,200.51-15.61,3-.25,8.94.52,11.53-1,2.85-1.66.71.38,1.65-2.32s0-7,0-9.76C1813.08,307.16,1706.27,314,1599,318Z" transform="translate(0.83 0.4)"/><path class="cls-1" d="M1677.69,383.18c-59.52,4.77-119.11,8.53-178.73,11.7-58.11,3.09-116.78,4.26-174.62,10.85-56.93,6.49-113.25,15-167.68,33.34-53.33,18-102.91,44.1-154.68,65.79A508.9,508.9,0,0,1,843,543.1c-51.32,3.85-102.77.42-153.75-6-102-12.78-202.14-36.46-302.91-56.2-114.94-22.5-231-42.15-347.4-55.33C25.94,424.15,13,422.7,0,421.48v8.08c0,5.68-1.17,6.41,5,7q25.58,2.6,51.1,5.55,51.08,5.92,101.94,13.47c33,4.91,66,10.05,98.82,16,15.88,2.88,31.75,5.51,47.57,8.83,14.84,3.12,29.84,4.46,44.67,7.75,32.56,7.21,65.51,12.75,98.18,19.59,33.33,7,66.67,13.89,100.08,20.45,67,13.15,134.87,26.31,203,32.13,63.94,5.46,128.43,4.36,191.26-9.64a463.23,463.23,0,0,0,88.45-29c28.72-12.84,56.11-27.58,85-40.38,58.87-26.06,119.28-44.74,183.19-53.91,65.25-9.36,130.81-14.19,196.56-18.34q102.26-6.45,204.35-15.19c67.77-5.82,135.22-14.72,202.78-22.49,4-.47,16.45-.13,18.09-3.16,1.08-2,0-7.19,0-9.6C1839.27,367.32,1758.64,376.63,1677.69,383.18Z" transform="translate(0.83 0.4)"/><path class="cls-1" d="M1312,384c-44.19,4.51-88.42,9.27-132,18.2-39.56,8.12-79.21,22.35-116.78,37.42-38.69,15.51-75.85,34.88-115.23,48.61A556.45,556.45,0,0,1,824.36,516.1c-86.09,9.24-173.19-5.16-257.75-19.82-43.91-7.61-87.44-16.76-131.15-25.42-44.29-8.78-88.52-17.38-133-25.18C202,428.07,101.48,411.73,0,401.62v9.05c0,6.62-.25,5.83,6.92,6.57q23,2.36,46,5.07,50.76,6,101.28,13.86C223.06,446.83,291.87,458,360.35,471c120.36,22.86,240,53.21,362.33,64.13,59.7,5.32,120.06,4.69,178.93-7.59,66.12-13.79,125.1-44.69,186.73-70.94a796.48,796.48,0,0,1,90.87-32.33c31.62-9.13,64.35-14,96.92-18.41,68-9.24,136.71-11.79,205.21-14.81,140.29-6.19,279.83-18.81,419.39-34,4.21-.46,17.61-.13,19.27-3.19,1.09-2,0-7.27,0-9.63-79.17,8.09-158.37,16-237.73,22.13-78.84,6.1-157.78,9.05-236.8,11.81C1401,379.69,1356.46,381.36,1312,384Z" transform="translate(0.83 0.4)"/><path class="cls-1" d="M1555,410c-52.85,2.2-105.5,6.46-158.15,11.54-52.44,5.07-106.5,10.24-157.67,23.21-48,12.18-93.64,32.06-138.33,53.18-22.79,10.77-45.25,23.16-68.78,32.22-10.69,4.12-20.92,9.77-32.07,12.59-13.13,3.32-26,7.67-39.18,11-99,25-202.5,16-302.12-.26C553.42,536.29,449.83,511.34,345,492c-60.06-11.08-120.48-20.52-180.82-29.94C109.35,453.5,55.12,447.26,0,441.32V451c0,.84-.54,3.85,0,4.51.91,1.09,8.19,1,9.77,1.21q23.84,2.4,47.64,5.2c34,4,68,8.82,101.87,13.93,69.24,10.43,138.37,21.61,207.14,34.86,123.8,23.85,246.55,54.56,372,69.19,61,7.12,122.78,9.85,183.9,2.77a501,501,0,0,0,92.29-19.36c31.15-9.77,60.64-23.59,89.93-37.85,30-14.59,59.64-29.71,90.52-42.32a541.22,541.22,0,0,1,93.48-28.56c63.92-13.56,129.12-20,194.14-25.56,69.45-5.93,138.92-11.48,208.29-18.3,72-7.08,143.73-16.14,215.5-24.91,4.15-.51,12,0,13.56-3.16,1.06-2.13,0-7.27,0-9.74-61,7.67-122.13,15.06-183.33,21.35q-45,4.62-90,8.35-23.33,1.91-46.67,3.51-11.67.8-23.33,1.51C1570.16,408,1561,407.58,1555,410Z" transform="translate(0.83 0.4)"/></svg>