<svg id="bfbf73d7-c530-40db-b058-cfcd33b42d36" xmlns="http://www.w3.org/2000/svg" viewBox="0 0 479.52 655.4"><defs><style>.cls-1{fill:#3f3d56;}.cls-2{fill:#fabdbd;}.cls-3,.cls-4{opacity:0.1;}.cls-4{isolation:isolate;}.cls-5{fill:#007b99;}</style></defs><title>girl-running</title><path class="cls-1" d="M560.11,559c.32-2.41.43-4.92.65-7.58.1-1.21.25-2.42.46-3.61.35-2.1.84-4.18,1.36-6.24s1-4.06,1.51-6.11a48,48,0,0,0,1-6.06,26,26,0,0,0,0-6.11,21.75,21.75,0,0,0-1.06-4.51c-10.31-.67-22.26-5.52-30,3-6.25,6.94-2.09,15-1.37,24.27.62,8,4.7,21.33,11.18,26.05,4.84,3.53,9.76,1,12.8-3.46A21.47,21.47,0,0,0,560.11,559Z" transform="translate(-293.8 -64.12)"/><path class="cls-2" d="M573.81,467.36c-1.37,11.63-3.7,23.21-3.46,34.92.09,4.52.57,9,.58,13.54a66.73,66.73,0,0,1-9,33.57,11.22,11.22,0,0,1-2.46,3.18c-2.37,1.92-5.94,1.76-8.6.29a17,17,0,0,1-6.11-6.63c-7.45-12.76-7.66-28.27-10.61-42.74-2.26-11.07-6.22-21.8-7.65-33-.93-7.21-.79-14.56-2.27-21.68-.45-2.15-1.71-5.38-2.54-8.55-.76-2.83-1.18-5.61-.4-7.52,1.59-3.91,6.8-2.39,10.19-2.15a235.86,235.86,0,0,0,35.86-.09c1.18-.09,2.52-.14,3.35.7a4.21,4.21,0,0,1,.8,1.45,48.27,48.27,0,0,1,2.17,8C575.31,449.36,574.85,458.49,573.81,467.36Z" transform="translate(-293.8 -64.12)"/><g class="cls-3"><path d="M569.21,430.5a9.53,9.53,0,0,0-1.85,0c-5.72.46-11.45.69-17.17.72Q559.7,431.24,569.21,430.5Z" transform="translate(-293.8 -64.12)"/><path d="M552.89,552.86a17,17,0,0,1-6.11-6.63c-7.45-12.76-7.66-28.27-10.61-42.74-2.26-11.07-6.22-21.8-7.65-33-.93-7.21-.79-14.56-2.27-21.68-.45-2.15-1.71-5.38-2.54-8.55-.76-2.83-1.18-5.61-.4-7.52a4.27,4.27,0,0,1,4-2.6c-2.53-.17-5,.13-6,2.6-.78,1.91-.36,4.69.4,7.52.83,3.17,2.09,6.4,2.54,8.55,1.48,7.12,1.34,14.47,2.27,21.68,1.43,11.21,5.39,21.94,7.65,33,3,14.47,3.16,30,10.61,42.74a17,17,0,0,0,6.11,6.63,8.94,8.94,0,0,0,5.24,1.06A9.22,9.22,0,0,1,552.89,552.86Z" transform="translate(-293.8 -64.12)"/></g><path class="cls-2" d="M611.62,528.69c-6,12-5,29-5,29,1,40-15,124-15,124h-14s-2-93,0-101-1-36-4-75c-2.23-29,3.84-55.28,7.1-66.81,1.12-4,1.9-6.19,1.9-6.19s23-34,36-18c3,3.72,8.83,11,9.38,20.48C629.78,466.45,616.22,519.48,611.62,528.69Z" transform="translate(-293.8 -64.12)"/><path class="cls-4" d="M628,435.17c-.55-9.48-6.36-16.77-9.38-20.48s-6.3-4.64-9.82-4.17a10.66,10.66,0,0,1,6.82,4.17c3,3.72,4.59,11.23,5.14,20.71,1.78,31.28-7.54,84.08-12.14,93.29-6,12-5,29-5,29,1,40-15,124-15,124h3s16-84,15-124c0,0-1-17,5-29C616.22,519.48,629.78,466.45,628,435.17Z" transform="translate(-293.8 -64.12)"/><path class="cls-1" d="M570.34,678a13.06,13.06,0,0,0-2.86,3.12c-1.79,3.38.75,7.42,3.47,10.11s6,5.57,6,9.4c0,3.08-2.33,5.72-4.94,7.36-1.4.88-3.16,2-2.87,3.66a3.35,3.35,0,0,0,.53,1.17c2.24,3.43,6.21,5.44,10.23,6.2s8.17.43,12.26.1a2.51,2.51,0,0,0,1.68-.58,2.28,2.28,0,0,0,.45-1.38c.2-2.12.07-4.36,1-6.27,1.3-2.61,4.29-3.94,6-6.28,2.4-3.2,2.07-7.65,1.16-11.54-2-8.47-6.45-18.13-13.13-24C581.58,662.37,575.51,673.17,570.34,678Z" transform="translate(-293.8 -64.12)"/><path class="cls-1" d="M600.64,174c5.58-8.34,4.13-20-1.57-28.3s-14.86-13.52-24.31-16.89c-12.74-4.54-26.79-6.09-39.88-2.68-10.42,2.71-19.78,8.38-29.6,12.76a127.3,127.3,0,0,1-55.28,11c-21.11-.59-44.24-6-61.95,5.54-32.42,21.09-18,78.49-48.67,102-8.27,6.34-18.68,9.11-27.88,14s-17.92,13.4-17.7,23.82c.1,5,2.3,9.77,5,14,11.5,18.23,33,29.51,54.53,29.3s42.54-11.66,54.95-29.28c3.11-4.41,5.85-9.32,10.36-12.26,9-5.9,20.86-1.77,31.6-.89,23.91,1.95,47.83-16,52.59-39.55,2-10.05,1.65-22.06,9.74-28.37,6.53-5.09,15.72-4,24-4.87,15.14-1.57,27.09-11,35.31-23.32,3.77-5.65,4.21-12.4,9.35-16.85C586.77,178.26,595.34,181.87,600.64,174Z" transform="translate(-293.8 -64.12)"/><g class="cls-3"><path d="M430,151.81a126.83,126.83,0,0,0,26.17-2c-2.38.07-4.78.07-7.17,0-16.57-.46-34.38-3.88-49.84.24C409.36,150.15,419.91,151.53,430,151.81Z" transform="translate(-293.8 -64.12)"/><path d="M398.62,299c-4.51,2.94-7.25,7.85-10.36,12.26a70.23,70.23,0,0,1-39.47,27.21c1.17.05,2.34.08,3.52.07,21.55-.21,42.54-11.66,54.95-29.28,3.11-4.41,5.85-9.32,10.36-12.26l.78-.48C411.34,295.54,404.41,295.2,398.62,299Z" transform="translate(-293.8 -64.12)"/><path d="M598.06,145.66c-5.69-8.26-14.86-13.52-24.31-16.89-12.74-4.54-26.79-6.09-39.88-2.68-.3.07-.59.16-.88.24a76.41,76.41,0,0,1,21.76,4.44c9.45,3.37,18.62,8.63,24.31,16.89s7.15,20,1.57,28.3c-5.3,7.91-13.87,4.3-19.48,9.17-5.14,4.45-5.58,11.2-9.35,16.85-7.07,10.57-16.91,19-29.16,22.2,4.21-.5,8.65-.44,12.85-.88,15.14-1.57,27.09-11,35.31-23.32,3.77-5.65,4.21-12.4,9.35-16.85,5.61-4.87,14.18-1.26,19.48-9.17C605.22,165.62,603.77,153.92,598.06,145.66Z" transform="translate(-293.8 -64.12)"/><path d="M516.5,225.3c-8.23.86-17.42-.22-24,4.87-8.09,6.31-7.7,18.32-9.74,28.37C479.25,276.11,465,290.6,448.06,296l1.19.11c23.91,1.95,47.83-16,52.59-39.55,2-10.05,1.65-22.06,9.74-28.37a18.07,18.07,0,0,1,6.21-3C517.34,225.19,516.93,225.26,516.5,225.3Z" transform="translate(-293.8 -64.12)"/></g><path class="cls-2" d="M758.12,138.19s-24,48-32,66-81,45-91,46a12.9,12.9,0,0,0-7.14,3.44c-5.65,5-8.86,13.56-8.86,13.56s4,27-1,72c-.1.87-.19,1.74-.27,2.58-4.36,42.82,4.77,52.92,4.77,52.92s-97,37-94-11c.94-15.11.8-26.15-.13-35.38a148.69,148.69,0,0,0-5.74-27.86c-2.37-8.29-5.2-17.38-8.13-29.76a130.66,130.66,0,0,0-5.56-18.15c-.07-.18-.14-.36-.2-.53-5-12.41-10-16.42-12.86-17.72a43,43,0,0,1-7.68-4.32c-9.24-6.67-29.07-21.62-46.73-39.28-24-24-48-81-48-81s-7-33,9-60,9,53,9,53,29,39,36,57c3.6,9.26,9.32,14,14,16.46A165.67,165.67,0,0,1,483.73,210a128.1,128.1,0,0,0,14.89,9.72c11.18,6,24.57,12.77,35.73,14.55a33.17,33.17,0,0,0,5.27.45,5.49,5.49,0,0,0,4.4-2c3-3.53,2.93-11.13,2.24-17.38a89.64,89.64,0,0,0-1.64-9.63s32.5-20.5,31.5,4.5a27.76,27.76,0,0,0,.76,8.22,14.26,14.26,0,0,0,9.69,10.6,24,24,0,0,0,12,.39,11.69,11.69,0,0,0,3.54-1.21c3-2,33-11,42-12s54-23,54-23l49-68s-1-40,19-56S758.12,138.19,758.12,138.19Z" transform="translate(-293.8 -64.12)"/><g class="cls-3"><path d="M617.85,335.77A199.67,199.67,0,0,0,616.7,360c.1-5.28.45-11.31,1.15-18.2.08-.84.17-1.71.27-2.58a392.89,392.89,0,0,0,2.5-46.39,400.76,400.76,0,0,1-2.5,40.39C618.06,334.06,617.93,334.93,617.85,335.77Z" transform="translate(-293.8 -64.12)"/><path d="M545.66,205.06c-.67.39-1,.63-1,.63a86.36,86.36,0,0,1,1.92,13A61.63,61.63,0,0,0,545.66,205.06Z" transform="translate(-293.8 -64.12)"/><path d="M412.06,117.26c.49-7,1.22-19.55,1.08-30.71-.17,14.92-1.5,30.14-1.5,30.14Z" transform="translate(-293.8 -64.12)"/><path d="M528.69,382.52a6.57,6.57,0,0,1-.07,1.17c-3,48,94,11,94,11a16.34,16.34,0,0,1-2.53-5.08C605.48,394.81,532.06,419,528.69,382.52Z" transform="translate(-293.8 -64.12)"/><path d="M758.12,132.19s-24,48-32,66-81,45-91,46a12.9,12.9,0,0,0-7.14,3.44c-5.65,5-8.86,13.56-8.86,13.56s.24,1.63.53,4.73c1.12-2.57,4-8.47,8.33-12.29a12.9,12.9,0,0,1,7.14-3.44c10-1,83-28,91-46s32-66,32-66,16.91-51.35,15-66.71C771.63,91.16,758.12,132.19,758.12,132.19Z" transform="translate(-293.8 -64.12)"/><path d="M528.49,342.31a148.69,148.69,0,0,0-5.74-27.86c-2.37-8.29-5.2-17.38-8.13-29.76a130.66,130.66,0,0,0-5.56-18.15c-.07-.18-.14-.36-.2-.53-5-12.41-10-16.42-12.86-17.72a43,43,0,0,1-7.68-4.32c-9.24-6.67-29.07-21.62-46.73-39.28-24-24-48-81-48-81a90.31,90.31,0,0,1-1.48-14.58,96.59,96.59,0,0,0,1.48,20.58s24,57,48,81c17.66,17.66,37.49,32.61,46.73,39.28a43.46,43.46,0,0,0,7.74,4.32c2.85,1.3,7.84,5.31,12.86,17.72.06.17.13.35.2.53a130.54,130.54,0,0,1,5.53,18.15c2.93,12.38,5.76,21.47,8.13,29.76a148.69,148.69,0,0,1,5.74,27.86c.42,4.18.67,8.73.74,13.85A175.39,175.39,0,0,0,528.49,342.31Z" transform="translate(-293.8 -64.12)"/></g><path class="cls-5" d="M627.53,298.87a59.48,59.48,0,0,0-4,7.88C622,311,622,315.52,621.73,320a106.43,106.43,0,0,1-2.84,18.52,20.7,20.7,0,0,1-1,3.28,8,8,0,0,1-3,3.69,21.82,21.82,0,0,1-3.39,1.85c-13.92,6.5-29.1,12.24-44.29,10a64.24,64.24,0,0,1-18.43-6.2c-5.5-2.67-11.72-5.84-17.42-3.62h0a8.8,8.8,0,0,1-2.79.87,2.59,2.59,0,0,1-.56-.05c-1.88-.36-1.88-6.7-2.31-8.57-1.64-7.18-1.89-13-2.87-19.24a63.45,63.45,0,0,0-2.41-10.17c-4-12.1-8.26-20.58-9.64-33.33a45.74,45.74,0,0,0-1.57-4.41c-.38,0-.59-.06-.5-.19a2.43,2.43,0,0,1,.3-.34,4.44,4.44,0,0,1,1.79-.89l1.18-.35c6.18-1.75,13-2.48,17.62-6.83,4.8-4.49,6-11.66,5.79-18.22-.06-2.11-1.09-7.23-.92-11.48a33.17,33.17,0,0,0,5.27.45,5.49,5.49,0,0,0,4.4-2,79,79,0,0,1,4.32,10c1.7,4.18,3,8.58,5.49,12.36,4,6.16,11.38,10.21,18.72,9.59s14.17-6.26,15.48-13.5c1.15-6.35-1.52-15.49-1.46-22.09a24,24,0,0,0,12,.39,10.84,10.84,0,0,1,.43,1.25c2.25,7.72,5.25,16.58,12.8,19.32,4.88,1.76,10.65.44,15.16,3a9.6,9.6,0,0,1,1,.66,11.07,11.07,0,0,1,2.65,2.81,22.65,22.65,0,0,1,3.21,10.08A56,56,0,0,1,627.53,298.87Z" transform="translate(-293.8 -64.12)"/><path class="cls-4" d="M576.88,218.41a34.08,34.08,0,0,1-30.62-3.09,89.64,89.64,0,0,0-1.64-9.63s32.5-20.5,31.5,4.5A27.76,27.76,0,0,0,576.88,218.41Z" transform="translate(-293.8 -64.12)"/><circle class="cls-2" cx="270.81" cy="120.57" r="34"/><path class="cls-1" d="M535.37,190.32c-1-6.24-2.54-14.1,2.68-17.67a11,11,0,0,1,6.19-1.6c10.81-.11,21.14,7.42,31.74,5.22a17.89,17.89,0,0,0,7-31.87c-4.17-3.1-9.44-4.22-14.54-5.27-13.41-2.76-27.41-5.51-40.65-2s-25.34,15.38-24.28,29c.5,6.52,3.82,12.44,7.29,18,2.64,4.22,12.92,24,17.91,24.3C535.75,208.84,536.06,194.4,535.37,190.32Z" transform="translate(-293.8 -64.12)"/><path class="cls-5" d="M619.62,377.69s-69,17-92,0c0,0-10,39-7,59,0,0,49,3,54,6,0,0,1-8,6-4,0,0,17-20,48-2C628.62,436.69,634.62,389.69,619.62,377.69Z" transform="translate(-293.8 -64.12)"/><path class="cls-4" d="M583,144.4a19.84,19.84,0,0,0-2.23-1.4A17.85,17.85,0,0,1,571,172.27c-10.6,2.2-20.93-5.33-31.74-5.22a11,11,0,0,0-6.19,1.6c-5.22,3.57-3.69,11.43-2.69,17.67.66,4.08.39,18.52-6.63,18.13h-.12c1.93,2.35,3.73,3.94,5.12,4,7,.39,7.29-14,6.63-18.13-1-6.24-2.53-14.1,2.69-17.67a11,11,0,0,1,6.19-1.6c10.81-.11,21.14,7.42,31.74,5.22a17.89,17.89,0,0,0,7-31.87Z" transform="translate(-293.8 -64.12)"/></svg>